<svg xmlns="http://www.w3.org/2000/svg" xmlns:xlink="http://www.w3.org/1999/xlink" id="iconWithBackground" width="512" height="512" fill="none" class="h-full w-full" viewBox="0 0 512 512"><rect id="r4" width="512" height="512" x="0" y="0" fill="url(#linearGradient)" stroke="#000" stroke-opacity="100%" stroke-width="0" paint-order="stroke" rx="35"/><defs><linearGradient id="linearGradient" gradientTransform="rotate(0)" gradientUnits="userSpaceOnUse" style="transform-origin:center center"><stop stop-color="#2c72e2"/><stop offset="1" stop-color="#4a00e0"/></linearGradient><radialGradient id="glare" cx="0" cy="0" r="1" gradientTransform="translate(256) rotate(90) scale(512)" gradientUnits="userSpaceOnUse"><stop stop-color="#fff"/><stop offset="1" stop-color="#fff" stop-opacity="0"/></radialGradient><clipPath id="clip"><use xlink:href="#r4"/></clipPath></defs><svg xmlns="http://www.w3.org/2000/svg" xmlns:xlink="http://www.w3.org/1999/xlink" width="309" height="309" x="101.5" y="101.5" aria-hidden="true" class="iconify iconify--mdi" role="img" viewBox="0 0 24 24" style="color:#fff"><path fill="currentColor" d="M7 14v-3.09c-.72-.33-1.39-.73-2-1.2V14h2m-2 4H3v-2H1v-2h2V7h2v1.43C6.8 10 9.27 11 12 11c2.73 0 5.2-1 7-2.57V7h2v7h2v2h-2v2h-2v-2H5v2m12-7.09V14h2V9.71c-.61.47-1.28.87-2 1.2M16 14v-2.68c-.64.23-1.31.4-2 .52V14h2m-3 0v-2.04L12 12l-1-.04V14h2m-3 0v-2.16c-.69-.12-1.36-.29-2-.52V14h2Z"/></svg></svg>